<svg xmlns="http://www.w3.org/2000/svg" xmlns:xlink="http://www.w3.org/1999/xlink" width="500" zoomAndPan="magnify" viewBox="0 0 375 374.999991" height="500" preserveAspectRatio="xMidYMid meet" version="1.0"><defs><g/><clipPath id="5a913f27e9"><path d="M 6.9375 6.9375 L 368.0625 6.9375 L 368.0625 368.058594 L 6.9375 368.058594 Z M 6.9375 6.9375 " clip-rule="nonzero"/></clipPath><clipPath id="853015ea9f"><path d="M 187.5 6.9375 C 87.777344 6.9375 6.9375 87.777344 6.9375 187.5 C 6.9375 287.222656 87.777344 368.058594 187.5 368.058594 C 287.222656 368.058594 368.058594 287.222656 368.058594 187.5 C 368.058594 87.777344 287.222656 6.9375 187.5 6.9375 " clip-rule="nonzero"/></clipPath><clipPath id="9b5aa92c92"><path d="M 203.101562 142.242188 L 215.984375 142.242188 L 215.984375 243.390625 L 203.101562 243.390625 Z M 203.101562 142.242188 " clip-rule="nonzero"/></clipPath><clipPath id="2816bd7f0c"><path d="M 209.222656 142.242188 C 210.847656 142.242188 212.40625 142.886719 213.554688 144.035156 C 214.703125 145.183594 215.347656 146.738281 215.347656 148.363281 L 215.347656 237.003906 C 215.347656 238.628906 214.703125 240.183594 213.554688 241.332031 C 212.40625 242.480469 210.847656 243.128906 209.222656 243.128906 C 207.601562 243.128906 206.042969 242.480469 204.894531 241.332031 C 203.746094 240.183594 203.101562 238.628906 203.101562 237.003906 L 203.101562 148.363281 C 203.101562 146.738281 203.746094 145.183594 204.894531 144.035156 C 206.042969 142.886719 207.601562 142.242188 209.222656 142.242188 " clip-rule="nonzero"/></clipPath></defs><g clip-path="url(#5a913f27e9)"><g clip-path="url(#853015ea9f)"><path fill="#ffffff" d="M 6.9375 6.9375 L 368.0625 6.9375 L 368.0625 368.058594 L 6.9375 368.058594 Z M 6.9375 6.9375 " fill-opacity="1" fill-rule="nonzero"/></g></g><g fill="#202124" fill-opacity="1"><g transform="translate(100.147331, 242.52426)"><g><path d="M 9.640625 0.609375 C 7.691406 0.609375 6.207031 0.0859375 5.1875 -0.953125 C 4.175781 -1.992188 3.671875 -3.507812 3.671875 -5.5 L 3.671875 -27.953125 C 3.671875 -31.984375 5.632812 -34 9.5625 -34 C 13.132812 -34 15.082031 -32.28125 15.40625 -28.84375 C 16.394531 -30.46875 17.757812 -31.753906 19.5 -32.703125 C 21.25 -33.660156 23.273438 -34.140625 25.578125 -34.140625 C 27.835938 -34.140625 29.796875 -33.640625 31.453125 -32.640625 C 33.109375 -31.640625 34.363281 -30.101562 35.21875 -28.03125 C 36.351562 -29.96875 37.890625 -31.46875 39.828125 -32.53125 C 41.773438 -33.601562 43.925781 -34.140625 46.28125 -34.140625 C 50.164062 -34.140625 53.046875 -32.972656 54.921875 -30.640625 C 56.804688 -28.304688 57.75 -24.675781 57.75 -19.75 L 57.75 -5.5 C 57.75 -3.507812 57.21875 -1.992188 56.15625 -0.953125 C 55.09375 0.0859375 53.585938 0.609375 51.640625 0.609375 C 49.742188 0.609375 48.273438 0.0859375 47.234375 -0.953125 C 46.191406 -1.992188 45.671875 -3.507812 45.671875 -5.5 L 45.671875 -19.40625 C 45.671875 -21.351562 45.375 -22.753906 44.78125 -23.609375 C 44.195312 -24.472656 43.226562 -24.90625 41.875 -24.90625 C 40.195312 -24.90625 38.914062 -24.316406 38.03125 -23.140625 C 37.15625 -21.960938 36.71875 -20.289062 36.71875 -18.125 L 36.71875 -5.5 C 36.71875 -3.507812 36.195312 -1.992188 35.15625 -0.953125 C 34.113281 0.0859375 32.617188 0.609375 30.671875 0.609375 C 28.722656 0.609375 27.226562 0.0859375 26.1875 -0.953125 C 25.15625 -1.992188 24.640625 -3.507812 24.640625 -5.5 L 24.640625 -19.40625 C 24.640625 -21.351562 24.34375 -22.753906 23.75 -23.609375 C 23.164062 -24.472656 22.191406 -24.90625 20.828125 -24.90625 C 19.203125 -24.90625 17.945312 -24.316406 17.0625 -23.140625 C 16.1875 -21.960938 15.75 -20.289062 15.75 -18.125 L 15.75 -5.5 C 15.75 -1.425781 13.710938 0.609375 9.640625 0.609375 Z M 9.640625 0.609375 "/></g></g></g><g fill="#202124" fill-opacity="1"><g transform="translate(161.352246, 242.52426)"><g><path d="M 15.125 0.75 C 12.550781 0.75 10.28125 0.273438 8.3125 -0.671875 C 6.34375 -1.628906 4.800781 -2.929688 3.6875 -4.578125 C 2.582031 -6.234375 2.03125 -8.125 2.03125 -10.25 C 2.03125 -12.644531 2.660156 -14.554688 3.921875 -15.984375 C 5.191406 -17.410156 7.226562 -18.425781 10.03125 -19.03125 C 12.84375 -19.644531 16.578125 -19.953125 21.234375 -19.953125 L 23.8125 -19.953125 L 23.8125 -20.90625 C 23.8125 -22.53125 23.394531 -23.679688 22.5625 -24.359375 C 21.726562 -25.035156 20.289062 -25.375 18.25 -25.375 C 17.125 -25.375 15.890625 -25.25 14.546875 -25 C 13.210938 -24.757812 11.710938 -24.320312 10.046875 -23.6875 C 8.546875 -23.144531 7.296875 -23.164062 6.296875 -23.75 C 5.304688 -24.34375 4.664062 -25.191406 4.375 -26.296875 C 4.082031 -27.398438 4.195312 -28.503906 4.71875 -29.609375 C 5.238281 -30.722656 6.242188 -31.550781 7.734375 -32.09375 C 9.910156 -32.863281 11.910156 -33.394531 13.734375 -33.6875 C 15.566406 -33.988281 17.253906 -34.140625 18.796875 -34.140625 C 24.359375 -34.140625 28.484375 -32.9375 31.171875 -30.53125 C 33.867188 -28.132812 35.21875 -24.359375 35.21875 -19.203125 L 35.21875 -5.5 C 35.21875 -1.425781 33.363281 0.609375 29.65625 0.609375 C 26.125 0.609375 24.242188 -1.195312 24.015625 -4.8125 C 23.390625 -3.09375 22.304688 -1.734375 20.765625 -0.734375 C 19.222656 0.253906 17.34375 0.75 15.125 0.75 Z M 17.84375 -7.125 C 19.519531 -7.125 20.929688 -7.664062 22.078125 -8.75 C 23.234375 -9.832031 23.8125 -11.257812 23.8125 -13.03125 L 23.8125 -14.25 L 21.234375 -14.25 C 18.566406 -14.25 16.609375 -13.960938 15.359375 -13.390625 C 14.117188 -12.828125 13.5 -11.9375 13.5 -10.71875 C 13.5 -9.675781 13.875 -8.816406 14.625 -8.140625 C 15.375 -7.460938 16.445312 -7.125 17.84375 -7.125 Z M 17.84375 -7.125 "/></g></g></g><g fill="#202124" fill-opacity="1"><g transform="translate(199.893697, 242.52426)"><g><path d="M 9.703125 0.609375 C 5.585938 0.609375 3.53125 -1.425781 3.53125 -5.5 L 3.53125 -27.953125 C 3.53125 -31.984375 5.5 -34 9.4375 -34 C 11.289062 -34 12.722656 -33.476562 13.734375 -32.4375 C 14.753906 -31.394531 15.265625 -29.898438 15.265625 -27.953125 L 15.265625 -27.75 C 16.035156 -29.695312 17.28125 -31.234375 19 -32.359375 C 20.71875 -33.492188 22.753906 -34.085938 25.109375 -34.140625 C 26.421875 -34.179688 27.40625 -33.847656 28.0625 -33.140625 C 28.71875 -32.441406 29.066406 -31.144531 29.109375 -29.25 C 29.109375 -27.613281 28.769531 -26.320312 28.09375 -25.375 C 27.414062 -24.425781 26.125 -23.863281 24.21875 -23.6875 L 22.671875 -23.546875 C 20.265625 -23.316406 18.519531 -22.644531 17.4375 -21.53125 C 16.351562 -20.425781 15.8125 -18.789062 15.8125 -16.625 L 15.8125 -5.5 C 15.8125 -1.425781 13.773438 0.609375 9.703125 0.609375 Z M 9.703125 0.609375 "/></g></g></g><g fill="#202124" fill-opacity="1"><g transform="translate(229.34262, 242.52426)"><g><path d="M 9.5 0.609375 C 7.550781 0.609375 6.066406 0.0859375 5.046875 -0.953125 C 4.035156 -1.992188 3.53125 -3.507812 3.53125 -5.5 L 3.53125 -42.34375 C 3.53125 -46.414062 5.519531 -48.453125 9.5 -48.453125 C 11.445312 -48.453125 12.953125 -47.929688 14.015625 -46.890625 C 15.078125 -45.847656 15.609375 -44.332031 15.609375 -42.34375 L 15.609375 -19.953125 L 15.75 -19.953125 L 24.015625 -30 C 25.148438 -31.394531 26.203125 -32.410156 27.171875 -33.046875 C 28.148438 -33.679688 29.472656 -34 31.140625 -34 C 32.816406 -34 34.109375 -33.585938 35.015625 -32.765625 C 35.921875 -31.953125 36.382812 -30.9375 36.40625 -29.71875 C 36.425781 -28.5 35.941406 -27.28125 34.953125 -26.0625 L 27.75 -17.5 L 36.03125 -7.0625 C 36.976562 -5.75 37.375 -4.515625 37.21875 -3.359375 C 37.0625 -2.203125 36.492188 -1.25 35.515625 -0.5 C 34.546875 0.238281 33.316406 0.609375 31.828125 0.609375 C 29.972656 0.609375 28.515625 0.28125 27.453125 -0.375 C 26.390625 -1.03125 25.3125 -2.054688 24.21875 -3.453125 L 15.75 -13.90625 L 15.609375 -13.90625 L 15.609375 -5.5 C 15.609375 -1.425781 13.570312 0.609375 9.5 0.609375 Z M 9.5 0.609375 "/></g></g></g><g fill="#202124" fill-opacity="1"><g transform="translate(268.698331, 242.52426)"><g><path d="M 21.71875 0.75 C 17.644531 0.75 14.125 0.0351562 11.15625 -1.390625 C 8.195312 -2.816406 5.925781 -4.84375 4.34375 -7.46875 C 2.757812 -10.09375 1.96875 -13.191406 1.96875 -16.765625 C 1.96875 -20.148438 2.722656 -23.15625 4.234375 -25.78125 C 5.753906 -28.40625 7.835938 -30.453125 10.484375 -31.921875 C 13.128906 -33.398438 16.148438 -34.140625 19.546875 -34.140625 C 22.890625 -34.140625 25.796875 -33.4375 28.265625 -32.03125 C 30.734375 -30.625 32.632812 -28.617188 33.96875 -26.015625 C 35.300781 -23.421875 35.96875 -20.378906 35.96875 -16.890625 C 35.96875 -15.128906 34.925781 -14.25 32.84375 -14.25 L 13.5 -14.25 C 13.90625 -12.082031 14.8125 -10.519531 16.21875 -9.5625 C 17.625 -8.613281 19.566406 -8.140625 22.046875 -8.140625 C 23.003906 -8.140625 24.140625 -8.253906 25.453125 -8.484375 C 26.765625 -8.710938 28.003906 -9.070312 29.171875 -9.5625 C 30.617188 -10.101562 31.84375 -10.113281 32.84375 -9.59375 C 33.84375 -9.082031 34.507812 -8.289062 34.84375 -7.21875 C 35.1875 -6.15625 35.140625 -5.070312 34.703125 -3.96875 C 34.273438 -2.863281 33.429688 -2.015625 32.171875 -1.421875 C 30.585938 -0.648438 28.898438 -0.0976562 27.109375 0.234375 C 25.316406 0.578125 23.519531 0.75 21.71875 0.75 Z M 20.09375 -26.328125 C 18.28125 -26.328125 16.796875 -25.785156 15.640625 -24.703125 C 14.484375 -23.617188 13.75 -22.035156 13.4375 -19.953125 L 26.0625 -19.953125 C 25.925781 -22.078125 25.347656 -23.671875 24.328125 -24.734375 C 23.304688 -25.796875 21.894531 -26.328125 20.09375 -26.328125 Z M 20.09375 -26.328125 "/></g></g></g><g fill="#202124" fill-opacity="1"><g transform="translate(306.357676, 242.52426)"><g><path d="M 21.03125 0.75 C 15.96875 0.75 12.210938 -0.425781 9.765625 -2.78125 C 7.328125 -5.132812 6.109375 -8.6875 6.109375 -13.4375 L 6.109375 -24.5 L 3.796875 -24.5 C 0.765625 -24.5 -0.75 -25.988281 -0.75 -28.96875 C -0.75 -31.914062 0.765625 -33.390625 3.796875 -33.390625 L 6.109375 -33.390625 L 6.109375 -37.59375 C 6.109375 -39.582031 6.628906 -41.097656 7.671875 -42.140625 C 8.710938 -43.179688 10.203125 -43.703125 12.140625 -43.703125 C 16.171875 -43.703125 18.1875 -41.664062 18.1875 -37.59375 L 18.1875 -33.390625 L 23.75 -33.390625 C 26.820312 -33.390625 28.359375 -31.914062 28.359375 -28.96875 C 28.359375 -25.988281 26.820312 -24.5 23.75 -24.5 L 18.1875 -24.5 L 18.1875 -13.84375 C 18.1875 -10.582031 19.835938 -8.953125 23.140625 -8.953125 C 23.773438 -8.953125 24.382812 -9.019531 24.96875 -9.15625 C 25.5625 -9.289062 26.101562 -9.359375 26.59375 -9.359375 C 27.320312 -9.410156 27.910156 -9.195312 28.359375 -8.71875 C 28.816406 -8.238281 29.046875 -7.164062 29.046875 -5.5 C 29.046875 -4.132812 28.84375 -2.988281 28.4375 -2.0625 C 28.03125 -1.132812 27.304688 -0.46875 26.265625 -0.0625 C 25.628906 0.15625 24.765625 0.34375 23.671875 0.5 C 22.585938 0.664062 21.707031 0.75 21.03125 0.75 Z M 21.03125 0.75 "/></g></g></g><g fill="#2ac17e" fill-opacity="1"><g transform="translate(43.651443, 177.17543)"><g><path d="M 17.015625 0.75 C 14.953125 0.75 12.890625 0.585938 10.828125 0.265625 C 8.773438 -0.046875 6.90625 -0.566406 5.21875 -1.296875 C 3.800781 -1.847656 2.875 -2.648438 2.4375 -3.703125 C 2 -4.753906 1.953125 -5.804688 2.296875 -6.859375 C 2.640625 -7.910156 3.269531 -8.707031 4.1875 -9.25 C 5.101562 -9.800781 6.203125 -9.847656 7.484375 -9.390625 C 9.347656 -8.710938 11.054688 -8.222656 12.609375 -7.921875 C 14.171875 -7.628906 15.660156 -7.484375 17.078125 -7.484375 C 18.773438 -7.484375 19.988281 -7.722656 20.71875 -8.203125 C 21.445312 -8.679688 21.8125 -9.304688 21.8125 -10.078125 C 21.8125 -10.765625 21.570312 -11.28125 21.09375 -11.625 C 20.613281 -11.96875 19.9375 -12.234375 19.0625 -12.421875 L 11.453125 -13.65625 C 8.617188 -14.113281 6.421875 -15.140625 4.859375 -16.734375 C 3.304688 -18.335938 2.53125 -20.421875 2.53125 -22.984375 C 2.53125 -25.359375 3.191406 -27.398438 4.515625 -29.109375 C 5.847656 -30.828125 7.703125 -32.15625 10.078125 -33.09375 C 12.460938 -34.03125 15.1875 -34.5 18.25 -34.5 C 20.300781 -34.5 22.171875 -34.335938 23.859375 -34.015625 C 25.554688 -33.703125 27.207031 -33.175781 28.8125 -32.4375 C 30.039062 -31.9375 30.828125 -31.160156 31.171875 -30.109375 C 31.515625 -29.054688 31.492188 -28.015625 31.109375 -26.984375 C 30.722656 -25.960938 30.0625 -25.1875 29.125 -24.65625 C 28.1875 -24.132812 27.050781 -24.125 25.71875 -24.625 C 24.207031 -25.21875 22.867188 -25.648438 21.703125 -25.921875 C 20.535156 -26.203125 19.453125 -26.34375 18.453125 -26.34375 C 16.578125 -26.34375 15.25 -26.078125 14.46875 -25.546875 C 13.695312 -25.023438 13.3125 -24.398438 13.3125 -23.671875 C 13.3125 -22.429688 14.15625 -21.675781 15.84375 -21.40625 L 23.453125 -20.09375 C 26.378906 -19.632812 28.628906 -18.640625 30.203125 -17.109375 C 31.785156 -15.578125 32.578125 -13.507812 32.578125 -10.90625 C 32.578125 -7.195312 31.160156 -4.328125 28.328125 -2.296875 C 25.492188 -0.265625 21.722656 0.75 17.015625 0.75 Z M 17.015625 0.75 "/></g></g></g><g fill="#2ac17e" fill-opacity="1"><g transform="translate(77.670554, 177.17543)"><g><path d="M 16.1875 0.75 C 11.800781 0.75 8.566406 -0.445312 6.484375 -2.84375 C 4.398438 -5.25 3.359375 -8.921875 3.359375 -13.859375 L 3.359375 -28.265625 C 3.359375 -32.328125 5.394531 -34.359375 9.46875 -34.359375 C 11.4375 -34.359375 12.945312 -33.832031 14 -32.78125 C 15.050781 -31.726562 15.578125 -30.222656 15.578125 -28.265625 L 15.578125 -13.515625 C 15.578125 -10.222656 16.992188 -8.578125 19.828125 -8.578125 C 21.472656 -8.578125 22.820312 -9.171875 23.875 -10.359375 C 24.925781 -11.546875 25.453125 -13.125 25.453125 -15.09375 L 25.453125 -28.265625 C 25.453125 -32.328125 27.484375 -34.359375 31.546875 -34.359375 C 33.515625 -34.359375 35.023438 -33.832031 36.078125 -32.78125 C 37.128906 -31.726562 37.65625 -30.222656 37.65625 -28.265625 L 37.65625 -5.5625 C 37.65625 -1.4375 35.691406 0.625 31.765625 0.625 C 28.242188 0.625 26.253906 -1.023438 25.796875 -4.328125 C 23.597656 -0.941406 20.394531 0.75 16.1875 0.75 Z M 16.1875 0.75 "/></g></g></g><g fill="#2ac17e" fill-opacity="1"><g transform="translate(118.891286, 177.17543)"><g><path d="M 9.609375 12.96875 C 5.578125 12.96875 3.5625 10.910156 3.5625 6.796875 L 3.5625 -28.265625 C 3.5625 -32.328125 5.550781 -34.359375 9.53125 -34.359375 C 13.144531 -34.359375 15.132812 -32.671875 15.5 -29.296875 C 16.414062 -30.890625 17.800781 -32.15625 19.65625 -33.09375 C 21.507812 -34.03125 23.554688 -34.5 25.796875 -34.5 C 28.671875 -34.5 31.21875 -33.789062 33.4375 -32.375 C 35.65625 -30.957031 37.390625 -28.929688 38.640625 -26.296875 C 39.898438 -23.671875 40.53125 -20.53125 40.53125 -16.875 C 40.53125 -13.257812 39.910156 -10.125 38.671875 -7.46875 C 37.441406 -4.820312 35.71875 -2.789062 33.5 -1.375 C 31.289062 0.0390625 28.722656 0.75 25.796875 0.75 C 23.691406 0.75 21.734375 0.316406 19.921875 -0.546875 C 18.117188 -1.421875 16.738281 -2.585938 15.78125 -4.046875 L 15.78125 6.796875 C 15.78125 8.804688 15.238281 10.335938 14.15625 11.390625 C 13.082031 12.441406 11.566406 12.96875 9.609375 12.96875 Z M 21.953125 -8.234375 C 23.773438 -8.234375 25.28125 -8.914062 26.46875 -10.28125 C 27.664062 -11.65625 28.265625 -13.851562 28.265625 -16.875 C 28.265625 -19.9375 27.664062 -22.140625 26.46875 -23.484375 C 25.28125 -24.835938 23.773438 -25.515625 21.953125 -25.515625 C 20.078125 -25.515625 18.546875 -24.835938 17.359375 -23.484375 C 16.171875 -22.140625 15.578125 -19.9375 15.578125 -16.875 C 15.578125 -13.851562 16.171875 -11.65625 17.359375 -10.28125 C 18.546875 -8.914062 20.078125 -8.234375 21.953125 -8.234375 Z M 21.953125 -8.234375 "/></g></g></g><g fill="#2ac17e" fill-opacity="1"><g transform="translate(161.415161, 177.17543)"><g><path d="M 21.953125 0.75 C 17.835938 0.75 14.28125 0.03125 11.28125 -1.40625 C 8.289062 -2.84375 5.992188 -4.890625 4.390625 -7.546875 C 2.785156 -10.203125 1.984375 -13.332031 1.984375 -16.9375 C 1.984375 -20.375 2.75 -23.414062 4.28125 -26.0625 C 5.8125 -28.71875 7.914062 -30.785156 10.59375 -32.265625 C 13.269531 -33.753906 16.320312 -34.5 19.75 -34.5 C 23.132812 -34.5 26.070312 -33.789062 28.5625 -32.375 C 31.0625 -30.957031 32.984375 -28.929688 34.328125 -26.296875 C 35.679688 -23.671875 36.359375 -20.597656 36.359375 -17.078125 C 36.359375 -15.296875 35.304688 -14.40625 33.203125 -14.40625 L 13.65625 -14.40625 C 14.0625 -12.207031 14.972656 -10.628906 16.390625 -9.671875 C 17.804688 -8.710938 19.773438 -8.234375 22.296875 -8.234375 C 23.253906 -8.234375 24.394531 -8.347656 25.71875 -8.578125 C 27.050781 -8.804688 28.3125 -9.171875 29.5 -9.671875 C 30.957031 -10.222656 32.1875 -10.234375 33.1875 -9.703125 C 34.195312 -9.179688 34.875 -8.378906 35.21875 -7.296875 C 35.5625 -6.222656 35.515625 -5.125 35.078125 -4 C 34.648438 -2.882812 33.796875 -2.03125 32.515625 -1.4375 C 30.910156 -0.664062 29.203125 -0.109375 27.390625 0.234375 C 25.585938 0.578125 23.773438 0.75 21.953125 0.75 Z M 20.296875 -26.609375 C 18.472656 -26.609375 16.976562 -26.0625 15.8125 -24.96875 C 14.644531 -23.875 13.898438 -22.273438 13.578125 -20.171875 L 26.34375 -20.171875 C 26.207031 -22.316406 25.625 -23.925781 24.59375 -25 C 23.5625 -26.070312 22.128906 -26.609375 20.296875 -26.609375 Z M 20.296875 -26.609375 "/></g></g></g><g fill="#2ac17e" fill-opacity="1"><g transform="translate(199.480889, 177.17543)"><g><path d="M 9.8125 0.625 C 5.644531 0.625 3.5625 -1.4375 3.5625 -5.5625 L 3.5625 -28.265625 C 3.5625 -32.328125 5.550781 -34.359375 9.53125 -34.359375 C 11.40625 -34.359375 12.859375 -33.832031 13.890625 -32.78125 C 14.921875 -31.726562 15.4375 -30.222656 15.4375 -28.265625 L 15.4375 -28.0625 C 16.207031 -30.019531 17.460938 -31.570312 19.203125 -32.71875 C 20.941406 -33.863281 23 -34.457031 25.375 -34.5 C 26.707031 -34.550781 27.703125 -34.21875 28.359375 -33.5 C 29.023438 -32.789062 29.378906 -31.476562 29.421875 -29.5625 C 29.421875 -27.914062 29.078125 -26.613281 28.390625 -25.65625 C 27.710938 -24.695312 26.410156 -24.125 24.484375 -23.9375 L 22.90625 -23.796875 C 20.488281 -23.566406 18.726562 -22.890625 17.625 -21.765625 C 16.53125 -20.648438 15.984375 -19 15.984375 -16.8125 L 15.984375 -5.5625 C 15.984375 -1.4375 13.925781 0.625 9.8125 0.625 Z M 9.8125 0.625 "/></g></g></g><g clip-path="url(#9b5aa92c92)"><g clip-path="url(#2816bd7f0c)"><path fill="#202124" d="M 203.101562 142.242188 L 215.34375 142.242188 L 215.34375 243.390625 L 203.101562 243.390625 Z M 203.101562 142.242188 " fill-opacity="1" fill-rule="nonzero"/></g></g></svg>